<?xml version="1.0" standalone="no"?>
<!DOCTYPE svg PUBLIC "-//W3C//DTD SVG 20010904//EN" "http://www.w3.org/TR/2001/REC-SVG-20010904/DTD/svg10.dtd">
<svg xmlns="http://www.w3.org/2000/svg" version="1.0" width="1024" height="1024" viewBox="0 0 1024.000000 1024.000000" preserveAspectRatio="xMidYMid meet">

<g transform="translate(0.000000,1024.000000) scale(0.100000,-0.100000)" fill="#000000" stroke="none">
<path d="M8650 10194 c-161 -58 -257 -217 -235 -389 7 -63 2 -57 108 -126 43 -28 115 -86 161 -129 l83 -79 65 14 c90 19 155 54 211 114 74 80 92 127 92 246 0 93 -2 104 -32 160 -39 74 -100 135 -173 171 -70 35 -208 44 -280 18z m226 -142 c97 -50 151 -162 125 -258 -23 -85 -95 -154 -179 -173 -43 -9 -44 -9 -103 44 -33 30 -85 70 -115 90 l-54 36 0 58 c0 102 63 192 156 221 42 14 126 5 170 -18z"/>
<path d="M8284 9607 c-211 -222 -637 -729 -867 -1031 l-105 -138 101 -76 c56 -41 155 -117 220 -169 65 -51 122 -93 127 -93 11 0 345 435 560 730 67 91 235 329 390 550 l18 25 -77 63 c-83 68 -281 212 -292 212 -3 0 -37 -33 -75 -73z"/>
<path d="M6145 9116 c-63 -28 -105 -94 -105 -166 0 -70 39 -133 102 -166 30 -16 120 -19 146 -5 19 10 91 -49 404 -331 l177 -159 -112 -142 c-62 -78 -211 -270 -332 -426 -189 -245 -220 -280 -225 -260 -4 13 -26 144 -50 292 -25 147 -47 259 -51 250 -3 -10 -19 -132 -35 -271 -15 -139 -31 -251 -35 -250 -6 3 -448 605 -542 740 -23 32 -42 56 -44 54 -4 -4 146 -406 359 -964 88 -232 99 -265 87 -282 -8 -10 -120 -154 -249 -320 l-235 -302 -7 171 c-9 249 -18 290 -88 408 -32 54 -81 124 -108 156 -167 196 -400 316 -676 348 -348 41 -748 -113 -1189 -456 l-97 -76 77 -58 c43 -33 114 -95 157 -139 l80 -80 69 34 c80 41 83 28 -37 151 -93 96 -98 80 47 177 205 136 441 238 631 271 284 49 555 -31 760 -224 115 -110 198 -256 236 -415 21 -88 40 -304 29 -328 -4 -7 -14 -58 -22 -113 -21 -131 -59 -246 -124 -374 l-53 -104 18 -31 c9 -17 18 -32 18 -34 1 -2 31 12 67 29 l66 33 49 105 c62 131 95 235 118 374 l18 107 31 1 c25 0 39 12 90 79 279 363 1381 1779 1386 1780 4 0 67 -50 140 -111 193 -160 436 -342 534 -401 47 -28 85 -53 84 -57 0 -3 -63 -85 -139 -181 -77 -96 -217 -285 -312 -420 -95 -135 -182 -254 -193 -266 -35 -35 -698 -863 -739 -922 -22 -32 -46 -61 -54 -66 -12 -7 -12 -10 -1 -16 10 -7 10 -11 0 -24 -20 -23 -10 -60 17 -64 13 -2 29 2 37 8 8 6 18 9 24 6 5 -3 40 38 77 91 37 54 79 111 95 126 15 16 80 96 146 178 105 132 121 149 148 149 85 0 1331 -88 1360 -97 13 -3 17 -2 10 5 -5 5 -213 77 -462 159 l-451 150 96 55 c224 129 475 278 469 278 -17 0 -372 -86 -557 -134 -113 -30 -206 -53 -207 -52 -1 1 165 206 369 456 203 250 378 466 389 478 l18 24 237 -159 c130 -87 249 -167 263 -177 23 -16 27 -26 27 -72 3 -155 194 -233 307 -126 79 75 83 182 11 262 -43 47 -89 64 -157 57 -51 -4 -52 -4 -122 58 -38 35 -138 123 -221 196 -83 74 -248 224 -366 335 -314 294 -375 337 -1095 789 l-333 208 0 40 c0 118 -142 203 -255 153z"/>
<path d="M6796 7813 c-3 -3 -6 -18 -6 -33 0 -19 -36 -74 -122 -186 -176 -228 -180 -233 -210 -239 -39 -9 -43 -22 -11 -39 15 -8 45 -28 67 -45 42 -34 59 -32 50 4 -5 19 16 54 107 179 62 86 114 154 115 153 1 -1 -16 -110 -38 -241 l-40 -240 33 -29 33 -30 25 30 c14 16 91 111 170 212 104 132 153 186 177 196 34 14 46 35 21 35 -7 0 -32 16 -54 35 -48 41 -53 42 -53 13 -1 -13 -49 -86 -112 -168 -82 -108 -109 -137 -105 -115 4 17 20 119 38 227 l31 197 -37 33 c-53 46 -71 58 -79 51z"/>
<path d="M2970 7804 c-142 -19 -326 -90 -451 -175 -85 -57 -232 -200 -281 -272 -33 -49 -88 -156 -88 -172 0 -2 10 -1 23 4 12 5 56 14 97 21 l75 12 45 60 c122 163 325 296 521 343 95 22 274 20 379 -5 145 -35 279 -91 406 -172 l62 -38 76 41 c42 22 76 44 76 48 0 4 -39 33 -87 65 -153 102 -348 185 -518 221 -72 15 -273 27 -335 19z"/>
<path d="M7217 7483 c-4 -3 -7 -16 -7 -29 0 -33 -303 -416 -339 -429 -15 -5 -28 -14 -27 -20 1 -13 103 -100 181 -154 l58 -41 29 42 c15 24 28 46 28 49 0 4 -12 9 -27 12 -16 3 -45 21 -67 39 l-38 33 143 184 c140 180 152 192 194 206 19 7 18 8 -9 28 -16 12 -46 37 -67 55 -39 34 -42 36 -52 25z"/>
<path d="M2522 7297 c-34 -34 -62 -66 -62 -70 0 -4 13 -7 30 -7 51 0 260 -48 368 -84 56 -19 151 -58 211 -87 l110 -52 61 54 c57 49 60 54 43 67 -40 30 -245 123 -354 160 -109 38 -286 82 -327 82 -9 0 -46 -28 -80 -63z"/>
<path d="M2080 7338 c-227 -57 -413 -160 -548 -302 -87 -91 -121 -142 -177 -258 -74 -153 -89 -224 -89 -423 0 -145 3 -184 23 -263 15 -60 27 -91 34 -88 7 2 43 15 80 27 52 18 66 27 61 39 -3 8 -15 58 -26 110 -63 299 49 619 284 809 68 55 202 128 283 155 l50 16 32 92 c17 51 31 93 30 94 -1 1 -18 -3 -37 -8z"/>
<path d="M4100 7178 c-41 -10 -77 -21 -79 -23 -2 -2 16 -26 39 -52 48 -55 86 -124 110 -203 l18 -55 86 -5 87 -5 -7 40 c-16 96 -130 317 -165 322 -8 1 -48 -8 -89 -19z"/>
<path d="M2138 6795 c-71 -48 -158 -193 -242 -401 l-44 -109 -64 130 c-35 72 -70 131 -78 132 -8 2 -23 -4 -33 -11 -17 -14 -14 -23 59 -175 67 -140 80 -161 101 -161 12 0 26 -1 29 -2 3 -2 28 56 55 127 67 175 144 329 189 377 33 34 43 39 76 36 48 -4 66 -33 106 -166 l28 -94 -41 -130 c-22 -71 -39 -132 -36 -135 3 -3 14 -2 24 1 12 4 27 31 43 77 25 72 40 95 40 61 0 -36 31 -123 52 -144 26 -26 92 -21 137 11 34 24 44 59 14 46 -10 -5 -32 -10 -50 -13 -27 -3 -34 0 -46 24 -17 34 -57 188 -57 220 0 12 22 82 50 155 27 74 50 139 50 145 0 18 -32 27 -42 12 -4 -7 -24 -52 -45 -100 -20 -49 -40 -88 -43 -88 -3 0 -13 27 -23 60 -24 82 -79 140 -133 140 -26 0 -52 -9 -76 -25z"/>
<path d="M4080 6764 c-235 -30 -415 -95 -578 -207 -130 -89 -217 -201 -264 -337 -30 -86 -32 -258 -5 -337 10 -29 20 -53 23 -53 2 0 34 15 71 32 38 18 69 33 70 33 1 1 -5 23 -13 50 -34 109 -4 247 78 362 93 130 313 243 563 289 139 25 345 16 496 -24 243 -63 436 -197 569 -395 l39 -57 14 52 c9 29 20 77 26 106 11 52 10 55 -19 92 -44 55 -152 154 -217 198 -126 86 -273 144 -444 177 -83 16 -340 28 -409 19z"/>
<path d="M2958 6611 c-14 -11 -41 -44 -59 -72 l-33 -52 -12 53 c-7 30 -20 60 -30 67 -24 17 -68 17 -103 -2 -47 -24 -51 -64 -5 -43 32 15 46 1 68 -66 22 -68 21 -81 -15 -134 -56 -83 -79 -102 -121 -102 -36 0 -38 -2 -38 -30 0 -23 5 -31 23 -35 46 -12 74 9 166 125 l19 25 7 -40 c11 -68 31 -102 63 -110 51 -11 141 40 115 66 -7 7 -14 5 -23 -6 -17 -20 -47 -19 -58 3 -5 9 -18 52 -28 94 l-18 78 39 55 c43 63 60 75 105 75 29 0 31 2 28 33 -3 28 -7 32 -34 35 -19 2 -40 -5 -56 -17z"/>
<path d="M4196 6529 c-2 -8 -14 -57 -25 -109 -12 -52 -41 -143 -65 -202 -41 -104 -42 -107 -20 -102 13 3 56 9 96 12 l73 7 27 70 c26 67 62 209 72 288 l5 37 -64 0 c-35 0 -70 3 -79 6 -9 3 -18 0 -20 -7z"/>
<path d="M3855 6479 c-11 -4 -46 -19 -78 -32 l-57 -23 102 -150 c56 -82 106 -152 112 -156 29 -20 47 -7 76 58 17 36 30 69 30 74 0 9 -147 227 -158 233 -4 3 -16 1 -27 -4z"/>
<path d="M4066 6044 c-262 -41 -481 -129 -866 -349 -412 -235 -571 -295 -786 -295 -240 0 -521 123 -726 318 l-57 54 -63 -21 c-122 -42 -120 -36 -31 -122 302 -288 681 -427 1021 -375 197 30 352 94 675 280 419 242 658 334 947 367 183 21 332 0 465 -66 92 -45 153 -99 213 -189 l49 -74 67 36 c36 20 66 40 66 45 0 25 -82 139 -141 197 -104 103 -221 163 -371 194 -96 20 -336 20 -462 0z"/>
<path d="M1570 6011 c-223 -50 -370 -130 -526 -285 -49 -50 -112 -124 -139 -165 -170 -258 -216 -584 -124 -881 21 -69 108 -260 118 -260 3 1 25 41 48 90 l42 90 -24 53 c-45 98 -67 202 -67 327 -1 252 90 471 272 650 163 160 369 241 614 241 262 0 499 -100 704 -295 l82 -79 68 27 c37 14 73 30 80 35 18 11 -129 161 -237 240 -110 81 -280 163 -406 197 -138 36 -377 43 -505 15z"/>
<path d="M4055 5804 c-111 -21 -110 -21 -124 -61 -7 -21 -27 -62 -44 -90 -27 -46 -36 -53 -62 -53 -41 0 -150 27 -186 45 -29 15 -32 15 -109 -26 -73 -39 -78 -44 -65 -59 25 -28 167 -89 241 -105 38 -7 108 -17 155 -21 l86 -7 30 44 c44 64 86 152 122 253 17 49 30 90 29 91 -2 1 -34 -4 -73 -11z"/>
<path d="M5605 5773 c-203 -28 -517 -174 -837 -388 l-77 -51 58 -58 58 -57 94 59 c243 152 462 258 618 298 167 43 353 29 499 -37 82 -37 179 -106 230 -165 40 -45 42 -46 76 -34 19 6 40 17 46 25 57 69 252 106 387 74 80 -19 182 -61 254 -105 l36 -22 31 25 c46 36 44 72 -7 105 -49 32 -187 98 -205 98 -8 0 -31 7 -52 16 -29 12 -73 17 -174 17 -116 1 -144 -2 -199 -21 -35 -13 -73 -30 -85 -38 -23 -16 -50 -19 -42 -5 8 13 -75 81 -178 145 -157 99 -356 143 -531 119z"/>
<path d="M4106 5542 c-4 -10 -21 -44 -40 -75 l-34 -55 87 -27 c114 -36 238 -94 316 -150 80 -57 148 -133 232 -260 36 -55 76 -112 89 -127 l22 -27 20 47 c12 26 26 78 33 114 l12 66 -50 64 c-114 142 -267 270 -413 343 -67 34 -247 105 -265 105 -2 0 -6 -8 -9 -18z"/>
<path d="M5843 5406 c-209 -221 -356 -461 -406 -662 -31 -126 -33 -120 26 -133 29 -6 62 -14 74 -17 19 -5 22 0 33 51 18 86 56 191 96 264 69 127 266 383 368 481 l37 34 -63 33 c-35 17 -68 32 -74 33 -7 0 -48 -38 -91 -84z"/>
<path d="M5035 5267 l-80 -42 -2 -45 c-9 -144 -38 -272 -85 -364 -50 -99 -97 -161 -269 -356 -90 -102 -210 -238 -267 -303 l-103 -117 48 -21 c26 -11 62 -26 78 -33 l31 -13 244 274 c135 151 271 309 302 352 127 169 183 338 195 589 4 70 2 122 -3 122 -5 -1 -45 -20 -89 -43z"/>
<path d="M6896 5272 c-3 -5 -10 -39 -16 -77 -9 -54 -8 -70 2 -76 9 -6 18 3 30 29 28 59 47 66 188 70 l125 4 -21 -23 c-11 -13 -62 -75 -113 -136 -69 -85 -99 -113 -116 -113 -16 0 -25 -7 -29 -27 -8 -31 5 -43 49 -43 77 -1 155 -68 155 -133 0 -40 -54 -92 -110 -107 -59 -16 -106 -7 -158 30 -42 30 -45 30 -63 14 -25 -22 -24 -28 9 -59 45 -42 102 -58 182 -53 214 16 314 195 176 316 -20 17 -49 35 -64 38 -43 11 -45 15 -19 43 47 51 227 289 227 300 0 13 -426 16 -434 3z"/>
<path d="M3317 5193 c-3 -2 12 -32 34 -66 130 -201 129 -555 -2 -761 -21 -33 -27 -52 -20 -59 7 -7 17 -3 31 14 171 200 217 468 116 682 -46 95 -140 209 -159 190z"/>
<path d="M3584 5144 c-8 -3 0 -25 22 -61 88 -147 112 -352 63 -538 -6 -22 -26 -71 -45 -109 -19 -38 -33 -71 -30 -74 12 -11 35 10 72 64 53 80 83 159 97 255 10 69 9 92 -6 162 -9 45 -32 114 -51 152 -38 76 -104 156 -122 149z"/>
<path d="M1635 5121 c-68 -42 -105 -113 -105 -202 l0 -48 -47 -3 c-44 -3 -47 -5 -48 -30 -2 -27 0 -28 48 -28 l49 0 -3 -156 c-4 -149 -5 -157 -27 -172 -12 -8 -22 -21 -22 -28 0 -11 23 -14 106 -14 95 0 105 2 102 17 -2 10 -12 19 -23 21 -43 8 -45 18 -45 178 l0 154 60 0 60 0 0 30 0 30 -60 0 -60 0 0 80 c0 89 16 134 52 146 22 7 48 -16 48 -42 0 -11 49 -34 71 -34 14 0 10 47 -5 85 -14 34 -17 35 -68 35 -34 0 -64 -7 -83 -19z"/>
<path d="M1986 5077 c-98 -137 -131 -241 -123 -382 3 -54 13 -113 25 -149 36 -101 144 -248 171 -232 5 4 -4 28 -25 59 -124 187 -122 517 3 719 27 44 28 48 9 48 -8 0 -35 -28 -60 -63z"/>
<path d="M2701 5090 c-71 -115 -105 -233 -104 -360 1 -100 22 -188 68 -285 31 -64 88 -135 100 -124 2 3 -4 22 -15 42 -104 194 -112 497 -19 706 34 74 33 71 15 71 -8 0 -28 -22 -45 -50z"/>
<path d="M5187 5043 c-4 -32 -9 -73 -13 -90 -6 -31 -5 -33 22 -33 16 0 66 -9 111 -19 l83 -18 38 78 37 78 -75 20 c-68 19 -172 41 -190 41 -4 0 -10 -26 -13 -57z"/>
<path d="M6205 5057 c-22 -17 -12 -37 19 -37 25 0 51 -48 140 -265 73 -178 76 -178 165 15 37 80 86 178 109 218 23 41 42 76 42 79 0 2 -14 3 -31 1 -29 -3 -36 -12 -83 -103 -29 -55 -67 -134 -85 -175 l-33 -75 -38 116 c-39 119 -71 191 -98 222 -18 21 -80 23 -107 4z"/>
<path d="M7470 5020 c-4 -8 -10 -28 -14 -45 -4 -16 -9 -38 -12 -47 -9 -29 20 -21 38 11 19 34 53 44 139 39 l57 -3 -91 -100 c-130 -144 -217 -247 -217 -257 0 -4 76 -8 169 -8 l168 0 15 53 c11 36 12 56 5 65 -8 10 -13 6 -23 -17 -16 -37 -36 -43 -139 -39 l-80 3 86 95 c127 141 210 242 207 252 -2 5 -70 10 -152 11 -123 2 -149 -1 -156 -13z"/>
<path d="M4209 4891 c-75 -43 -165 -94 -200 -112 -34 -19 -64 -38 -66 -44 -2 -5 81 -56 185 -112 260 -141 232 -130 232 -90 0 32 -4 35 -122 102 -68 37 -138 77 -156 88 l-33 19 53 25 c29 13 99 50 156 81 97 54 102 58 102 89 0 18 -3 33 -7 33 -5 -1 -69 -36 -144 -79z"/>
<path d="M5721 4848 c-22 -45 -31 -73 -24 -75 33 -11 167 -115 225 -175 75 -76 139 -191 157 -280 l11 -54 64 -12 c35 -6 71 -15 81 -18 16 -7 17 -2 11 52 -27 226 -168 431 -405 586 -40 26 -76 48 -80 48 -3 0 -22 -32 -40 -72z"/>
<path d="M2247 4896 c-52 -19 -85 -52 -99 -98 -21 -70 21 -146 87 -160 16 -3 13 -7 -18 -22 -21 -10 -42 -27 -48 -38 -12 -23 -4 -54 18 -62 13 -5 8 -14 -25 -41 -80 -69 -77 -144 8 -177 95 -36 233 -14 295 47 94 94 33 195 -127 211 -70 7 -105 27 -77 44 8 5 37 14 64 20 104 22 160 81 151 159 -4 24 -11 50 -17 57 -9 12 -3 14 35 14 42 0 46 2 46 25 0 25 -2 25 -77 25 -43 0 -100 2 -128 5 -31 3 -65 0 -88 -9z m98 -32 c23 -9 45 -57 45 -98 0 -109 -86 -142 -140 -54 -28 46 -26 90 6 127 25 30 54 38 89 25z m46 -399 c96 -50 35 -135 -98 -135 -110 0 -144 54 -81 126 32 36 33 36 90 30 32 -3 72 -13 89 -21z"/>
<path d="M3132 4866 c-22 -24 -46 -54 -53 -67 -12 -23 -13 -23 -25 24 -17 65 -29 77 -80 77 -31 0 -51 -7 -70 -23 -31 -27 -26 -55 6 -34 32 19 53 -3 74 -76 l19 -65 -32 -50 c-54 -84 -75 -102 -121 -102 -41 0 -41 -1 -38 -32 3 -29 7 -33 35 -36 36 -4 90 38 139 109 l29 42 11 -57 c14 -70 36 -96 82 -96 37 0 88 25 97 48 8 21 2 23 -33 10 -42 -16 -48 -8 -77 88 -26 89 -24 96 43 175 27 31 40 39 67 39 40 0 45 6 38 43 -5 23 -10 27 -38 27 -26 0 -41 -9 -73 -44z"/>
<path d="M1141 4656 c-108 -135 -191 -303 -233 -473 -32 -127 -32 -360 0 -487 91 -361 371 -634 762 -742 93 -26 125 -30 115 -13 -4 6 -13 43 -19 82 l-12 71 -82 27 c-275 92 -472 266 -570 501 -36 86 -62 220 -62 318 0 192 83 423 215 599 l51 68 -50 56 c-28 32 -54 57 -58 57 -3 0 -29 -29 -57 -64z"/>
<path d="M5027 4590 l-37 -70 37 -16 c89 -37 306 -104 401 -123 56 -11 115 -27 130 -35 33 -17 98 -81 119 -117 l16 -26 75 23 c41 13 77 25 79 28 10 9 -68 114 -122 165 -67 64 -88 73 -297 127 -92 24 -210 59 -261 79 -52 19 -96 35 -98 35 -2 0 -21 -32 -42 -70z"/>
<path d="M7200 4503 c0 -21 -11 -68 -24 -104 -52 -149 -171 -274 -343 -361 -24 -12 -43 -29 -43 -37 0 -13 -42 -102 -74 -159 -26 -45 -95 -114 -109 -109 -8 3 -17 21 -21 41 -13 69 -77 179 -142 242 -113 113 -263 168 -449 168 -167 -1 -238 -23 -583 -183 -248 -116 -408 -154 -642 -154 -321 0 -606 107 -819 308 l-67 63 -52 -50 -53 -51 28 -30 c305 -327 785 -468 1260 -371 124 25 275 79 447 161 191 90 265 119 358 138 225 48 443 -37 527 -206 42 -84 54 -156 48 -274 -12 -247 -164 -494 -410 -668 -94 -67 -95 -68 -112 -130 -90 -325 -372 -594 -680 -648 -75 -13 -284 -7 -325 9 -22 8 -30 5 -65 -27 -22 -20 -55 -48 -74 -63 l-34 -26 67 -21 c114 -35 191 -44 330 -38 100 4 152 11 219 31 152 45 297 129 420 245 107 99 229 295 274 437 16 52 24 62 97 117 254 193 422 464 452 726 3 34 10 61 15 61 5 0 27 28 51 63 23 34 58 79 77 99 56 58 77 90 122 177 22 44 47 81 55 81 8 0 14 5 14 10 0 6 5 10 11 10 21 0 136 90 194 153 83 90 84 91 126 177 29 59 39 94 45 153 l7 77 -62 0 -61 0 0 -37z"/>
<path d="M5410 4272 c0 -41 26 -152 39 -165 11 -11 143 55 137 68 -3 5 -11 29 -18 52 -10 37 -18 45 -59 63 -26 11 -59 20 -73 20 -23 0 -26 -4 -26 -38z"/>
<path d="M1165 4208 c-14 -43 -25 -87 -25 -98 0 -22 107 -122 215 -200 199 -143 396 -231 778 -345 320 -96 443 -153 548 -254 l72 -69 66 26 c36 14 68 27 70 29 10 7 -89 120 -148 169 -125 104 -233 154 -506 234 -487 141 -711 257 -937 481 l-108 107 -25 -80z"/>
<path d="M2500 4110 c-122 -26 -212 -62 -304 -124 -76 -51 -175 -141 -165 -150 2 -2 39 -15 83 -29 l79 -24 61 46 c220 166 531 186 773 49 71 -40 172 -134 214 -199 17 -27 34 -48 36 -45 2 2 24 36 49 76 l44 72 -30 38 c-190 240 -528 357 -840 290z"/>
<path d="M3670 3963 c-30 -42 -124 -159 -209 -262 -276 -335 -598 -751 -825 -1068 -48 -68 -93 -123 -99 -123 -25 0 -232 127 -287 177 -108 99 -212 263 -245 389 -26 102 -16 311 20 405 5 14 -9 22 -75 44 -45 15 -83 25 -85 23 -17 -16 -38 -144 -42 -249 -5 -112 -2 -139 21 -240 66 -283 241 -498 535 -657 l70 -38 -65 -95 c-250 -360 -492 -785 -629 -1104 -26 -60 -92 -212 -147 -337 -108 -248 -124 -310 -80 -316 15 -2 42 11 78 38 30 23 123 87 207 143 353 237 748 594 1128 1022 254 285 1043 1223 1192 1418 60 77 164 207 233 288 68 81 121 150 116 152 -4 2 -31 11 -61 18 l-54 14 -54 -60 c-29 -33 -106 -127 -171 -208 -64 -81 -148 -188 -187 -236 -124 -156 -947 -1129 -1114 -1316 -161 -180 -532 -550 -676 -674 -99 -85 -386 -307 -433 -335 -8 -5 -5 11 8 44 265 672 591 1212 1306 2160 122 162 289 376 371 475 207 251 358 438 379 470 l17 26 -44 44 -44 43 -55 -75z"/>
<path d="M6006 3924 c-58 -74 -143 -89 -228 -42 l-37 21 -77 -37 -77 -37 27 -28 c39 -41 130 -87 198 -101 100 -20 205 11 289 87 37 34 96 119 88 127 -4 4 -142 46 -150 46 -2 0 -17 -16 -33 -36z"/>
<path d="M4916 3449 c-82 -19 -145 -98 -146 -181 0 -54 20 -48 50 15 45 93 134 126 199 71 57 -48 50 -136 -15 -194 -29 -25 -43 -30 -88 -30 -50 0 -54 -2 -60 -26 -4 -15 -6 -27 -4 -29 2 -1 30 -7 62 -14 69 -13 101 -39 117 -92 24 -79 -21 -157 -102 -179 -49 -13 -91 -6 -140 26 l-37 23 -22 -24 -21 -23 33 -25 c46 -34 67 -44 115 -52 90 -15 209 49 253 136 38 73 15 190 -46 238 l-23 18 20 19 c50 45 78 144 60 211 -6 21 -25 53 -43 70 -29 28 -47 36 -108 48 -8 1 -33 -1 -54 -6z"/>
<path d="M2915 3214 c-55 -24 -140 -57 -190 -73 -165 -54 -435 -101 -575 -101 -27 0 -50 -2 -50 -5 0 -2 17 -38 37 -80 36 -72 39 -75 73 -75 96 0 345 40 480 76 134 37 142 41 201 123 95 130 131 181 127 180 -1 -1 -48 -21 -103 -45z"/>
<path d="M5340 3188 c-6 -24 -13 -50 -16 -60 -9 -30 15 -29 30 1 9 16 29 34 47 40 34 12 149 15 149 4 0 -3 -31 -40 -68 -82 -153 -170 -232 -263 -232 -272 0 -5 72 -9 163 -9 l163 0 13 50 c16 61 6 83 -20 41 -21 -35 -54 -44 -148 -39 l-65 3 103 115 c117 131 191 224 191 239 0 7 -49 11 -150 11 l-149 0 -11 -42z"/>
<path d="M4084 2985 c-3 -8 -14 -17 -25 -20 -10 -4 -19 -13 -19 -22 0 -8 -9 -26 -20 -40 -11 -14 -20 -33 -20 -41 0 -36 156 -298 254 -427 66 -87 210 -235 229 -235 13 0 137 78 137 86 0 2 -45 48 -100 101 -144 138 -270 315 -380 532 -22 45 -43 81 -45 81 -3 0 -8 -7 -11 -15z"/>
<path d="M4842 2447 c-24 -46 -63 -109 -88 -140 -171 -215 -515 -314 -804 -231 -126 36 -277 136 -357 236 -36 45 -37 46 -50 25 -7 -12 -15 -29 -18 -37 -4 -8 -16 -35 -27 -58 l-20 -44 58 -60 c111 -112 284 -200 459 -233 109 -21 315 -16 415 10 97 25 275 115 351 178 36 30 88 84 117 120 48 60 132 205 146 252 6 20 -8 27 -129 62 -5 2 -29 -34 -53 -80z"/>
<path d="M9060 1270 c-30 -30 -11 -62 33 -58 28 3 32 7 32 32 0 40 -37 54 -65 26z"/>
</g>
</svg>